<?xml version="1.0" standalone="no"?><svg xmlns="http://www.w3.org/2000/svg" viewBox="0 0 1440 320"><path fill="#FF4F5A" fill-opacity="1" d="M0,160L21.8,144C43.6,128,87,96,131,85.3C174.5,75,218,85,262,96C305.5,107,349,117,393,154.7C436.4,192,480,256,524,266.7C567.3,277,611,235,655,202.7C698.2,171,742,149,785,160C829.1,171,873,213,916,213.3C960,213,1004,171,1047,165.3C1090.9,160,1135,192,1178,218.7C1221.8,245,1265,267,1309,240C1352.7,213,1396,139,1418,101.3L1440,64L1440,0L1418.2,0C1396.4,0,1353,0,1309,0C1265.5,0,1222,0,1178,0C1134.5,0,1091,0,1047,0C1003.6,0,960,0,916,0C872.7,0,829,0,785,0C741.8,0,698,0,655,0C610.9,0,567,0,524,0C480,0,436,0,393,0C349.1,0,305,0,262,0C218.2,0,175,0,131,0C87.3,0,44,0,22,0L0,0Z"></path></svg>